<svg version="1.1" id="Layer_1" xmlns="http://www.w3.org/2000/svg" xmlns:xlink="http://www.w3.org/1999/xlink" x="0px" y="0px"
	 width="100%" viewBox="0 0 1024 1024" enable-background="new 0 0 1024 1024" xml:space="preserve">
<path fill="#000000" opacity="1.000000" stroke="none" 
	d="
M541.869324,331.785431 
	C554.446045,333.920776 566.499329,336.106384 577.909119,341.218079 
	C582.815674,343.416199 586.503174,346.782135 590.409851,350.107574 
	C599.511108,357.854919 606.778564,366.920166 612.333252,377.624329 
	C627.992859,407.800995 640.967285,439.232422 655.885376,469.750885 
	C658.795593,475.704468 657.825928,477.739899 651.705261,480.531830 
	C645.493042,483.365479 639.155640,485.947723 633.071716,489.031799 
	C628.349609,491.425568 625.704590,490.242737 622.955872,485.808624 
	C612.411804,468.798889 603.471741,450.902161 593.483704,433.592041 
	C592.269226,431.487183 592.000427,427.624878 588.624146,428.154572 
	C585.550537,428.636719 584.880981,432.170929 583.970398,434.763672 
	C583.332031,436.581329 583.345947,438.684082 583.342407,440.659973 
	C583.303894,462.155304 583.218323,483.651581 583.391479,505.145569 
	C583.434753,510.517212 581.802917,514.167603 576.920105,516.918030 
	C556.423035,528.463745 537.157898,541.892517 518.600098,556.316833 
	C514.729675,559.325256 511.131897,559.163330 507.678864,556.574402 
	C487.798828,541.669373 466.967834,528.174866 446.104950,514.724487 
	C443.338196,512.940796 442.874634,510.391510 442.831909,507.400726 
	C442.506042,484.581757 442.103485,461.763885 441.725281,438.945679 
	C441.703186,437.612854 441.707672,436.279144 441.660645,434.947235 
	C441.555878,431.979858 440.061890,429.525360 437.374908,428.840637 
	C434.646790,428.145538 433.507416,430.868408 432.379059,432.897461 
	C422.422424,450.801727 412.402954,468.671936 402.608765,486.664795 
	C400.848663,489.898224 399.008118,490.925812 395.472504,489.823059 
	C386.824219,487.125702 379.008606,482.621826 370.911530,478.747467 
	C367.609650,477.167603 368.353271,474.269501 369.566864,471.384705 
	C378.547699,450.037048 388.358459,429.066345 398.370667,408.193237 
	C403.771515,396.933777 409.037201,385.608734 414.924042,374.574341 
	C421.827759,361.634003 431.135834,350.991547 443.645264,343.416382 
	C453.888092,337.213806 465.379639,334.355652 477.146271,332.718994 
	C498.526642,329.745209 519.981262,330.658142 541.869324,331.785431 
M533.894226,439.345032 
	C534.760437,438.848907 535.632019,438.361725 536.492065,437.855194 
	C543.629761,433.651947 543.798767,431.408722 536.584961,427.323669 
	C530.739197,424.013367 526.445984,419.257782 522.621582,414.028198 
	C520.383606,410.967896 518.997925,407.299255 516.977295,404.061249 
	C514.503052,400.096375 510.959351,400.066223 509.044830,404.212677 
	C504.644806,413.742218 497.480408,420.702454 489.331360,426.941681 
	C484.970276,430.280670 484.931366,433.926910 489.379456,437.039062 
	C497.554871,442.759125 504.369415,449.531097 508.994690,458.518860 
	C511.196472,462.797211 514.191772,462.687622 516.955200,458.689178 
	C517.989685,457.192383 518.696289,455.473419 519.656189,453.919891 
	C523.178040,448.219727 527.178284,442.962891 533.894226,439.345032 
z"/>
<path fill="#000000" opacity="1.000000" stroke="none" 
	d="
M439.053345,541.898071 
	C462.988464,557.718689 486.351898,573.730164 508.427551,591.520203 
	C512.315002,594.652893 515.202087,592.959961 518.201538,590.703918 
	C530.984863,581.089050 543.471069,571.060303 556.505554,561.801819 
	C585.073181,541.510071 614.798523,523.101562 647.033630,509.100922 
	C658.306152,504.204956 670.120789,501.692596 682.557373,502.872437 
	C692.819763,503.846008 703.665466,513.132874 703.511230,524.349609 
	C703.299622,539.728455 697.759399,553.148132 689.337952,565.195557 
	C679.291870,579.566956 667.091736,592.001709 651.490662,600.876038 
	C632.065979,611.925415 611.155945,618.055420 589.263245,621.259216 
	C558.530579,625.756714 527.579529,626.373962 496.592773,625.891174 
	C469.255096,625.465332 442.067719,623.014099 415.330170,617.309998 
	C390.736847,612.063293 368.727600,600.924194 350.859528,583.140137 
	C338.549042,570.887512 328.470551,556.689087 323.581299,539.538452 
	C320.987793,530.440857 320.713196,521.234070 325.493500,512.913147 
	C328.801300,507.155396 334.486145,503.632202 341.372192,502.927521 
	C354.862671,501.546936 367.449432,504.950653 379.570557,510.516235 
	C399.864044,519.834229 419.988556,529.478760 439.053345,541.898071 
z"/>
<path fill="#000000" opacity="1.000000" stroke="none" 
	d="
M734.000122,708.678833 
	C744.831116,708.696106 755.162231,708.690979 765.492981,708.752441 
	C767.245972,708.762878 769.390137,708.294189 770.176392,710.607788 
	C771.021484,713.094543 772.313599,715.720459 770.181458,718.170288 
	C764.387695,724.827209 758.785217,731.688354 752.037659,737.424072 
	C748.259460,740.635681 743.840332,741.990051 738.681091,741.980957 
	C680.361023,741.878479 622.039856,741.802612 563.721436,742.140747 
	C555.334167,742.189392 548.414124,739.215637 542.826172,734.200500 
	C530.046997,722.731323 524.336609,707.863159 526.413635,690.692871 
	C528.034058,677.297729 533.055115,665.292603 544.184509,656.706055 
	C549.728088,652.429199 555.880310,649.957397 563.060425,649.962341 
	C649.041138,650.021606 735.021851,650.008179 821.002563,650.018555 
	C827.527588,650.019348 828.393066,650.638062 826.320557,656.905396 
	C822.845032,667.415588 816.330383,675.945740 807.135498,682.272766 
	C805.541809,683.369385 803.602600,683.104919 801.781555,683.116577 
	C792.950439,683.173157 784.119019,683.190308 775.287842,683.237854 
	C710.308777,683.587585 645.329651,683.942810 580.350586,684.291382 
	C572.518188,684.333435 569.486023,687.612549 569.396973,696.188782 
	C569.331787,702.468079 574.195251,707.611328 580.553223,707.652710 
	C598.215393,707.767700 615.878784,707.690552 633.540833,707.817505 
	C666.860901,708.057129 700.180359,708.386658 734.000122,708.678833 
z"/>
<path fill="#000000" opacity="1.000000" stroke="none" 
	d="
M455.700623,692.194214 
	C455.680359,686.939209 452.347443,685.295288 448.404785,684.396973 
	C447.134125,684.107422 445.748535,684.314880 444.415466,684.307617 
	C371.926086,683.914673 299.436920,683.452942 226.947021,683.230347 
	C218.903442,683.205688 213.154709,679.895691 208.916519,673.639221 
	C204.922424,667.743042 200.015472,662.428772 197.555450,655.503479 
	C196.082260,651.356262 197.389343,649.922852 201.454865,650.052429 
	C203.285858,650.110840 205.120865,650.035278 206.954041,650.035034 
	C292.115784,650.024048 377.277588,649.983887 462.439270,650.039734 
	C474.547302,650.047668 483.664368,655.933899 490.300995,665.753296 
	C502.246735,683.427917 502.375488,702.234497 493.408447,720.751587 
	C487.098755,733.781189 476.835785,742.155090 460.833252,742.070923 
	C403.171478,741.767578 345.507141,741.903748 287.843964,741.994751 
	C283.439117,742.001648 279.803711,741.076660 276.464417,738.070129 
	C271.515320,733.614319 266.288940,729.462402 261.113953,725.263306 
	C258.872467,723.444458 257.188416,721.243774 255.647232,718.833740 
	C254.025177,716.297241 253.132919,713.879517 254.566406,710.899231 
	C256.072723,707.767517 258.829437,708.783997 261.133514,708.768677 
	C320.956787,708.370667 380.780487,708.035828 440.604248,707.707642 
	C443.443665,707.692078 446.231781,707.473267 449.040131,706.960754 
	C454.491058,705.966003 457.198090,702.539917 456.504059,697.023682 
	C456.317566,695.541321 455.983765,694.077515 455.700623,692.194214 
z"/>
<path fill="#000000" opacity="1.000000" stroke="none" 
	d="
M468.975952,59.967468 
	C480.181793,49.113358 493.012909,43.338203 508.509827,42.905025 
	C522.746521,42.507080 535.631897,45.261105 547.781616,53.165977 
	C563.018494,63.079319 572.000732,77.061264 574.990662,94.329399 
	C579.159851,118.407433 571.459900,138.913635 552.653137,154.849625 
	C537.078735,168.046677 519.164551,171.198761 499.400879,167.461975 
	C485.539093,164.841095 473.789520,158.565643 465.080475,147.787872 
	C456.461823,137.122009 449.745422,125.158676 449.761810,110.743782 
	C449.769897,103.639648 449.525665,96.619858 451.462891,89.492149 
	C454.583832,78.008942 460.711395,68.642899 468.975952,59.967468 
z"/>
<path fill="#000000" opacity="1.000000" stroke="none" 
	d="
M152.705124,317.518219 
	C152.078781,307.475708 155.373276,298.879639 161.533386,291.891632 
	C165.910675,286.926025 172.353424,284.144501 179.032120,283.121796 
	C190.768631,281.324585 200.329422,286.035522 207.962448,294.518372 
	C228.575378,317.426270 248.980560,340.521393 269.403595,363.599396 
	C271.186737,365.614349 272.991608,366.912354 275.792877,366.700867 
	C277.946289,366.538361 280.156006,366.436279 282.281830,366.731293 
	C287.278839,367.424805 290.550537,365.311981 293.741974,361.536285 
	C302.611420,351.043121 314.586517,348.733704 327.290771,351.272461 
	C345.888855,354.988983 356.600220,370.753143 356.869659,388.300934 
	C357.015930,397.829712 352.579773,406.295868 346.256744,413.538361 
	C332.491913,429.304718 304.387848,426.743958 292.892700,412.393494 
	C290.618164,409.553894 288.572845,406.439728 286.957672,403.186218 
	C285.011169,399.265411 282.131348,397.476074 277.874023,397.531586 
	C276.545319,397.548920 275.181915,397.149078 273.889221,397.330658 
	C263.278259,398.821228 256.363831,392.857819 250.071030,385.633728 
	C236.615860,370.187378 223.082840,354.806763 209.815048,339.200836 
	C206.952820,335.834198 204.637268,335.716492 201.011017,337.716705 
	C195.524170,340.743256 190.048706,343.341217 183.256424,343.448212 
	C170.140213,343.654846 155.853043,333.902618 153.478851,320.299133 
	C153.336716,319.484741 153.009247,318.702667 152.705124,317.518219 
z"/>
<path fill="#000000" opacity="1.000000" stroke="none" 
	d="
M825.979004,287.874146 
	C836.997864,279.868286 851.906677,281.536713 861.599121,289.534332 
	C872.973511,298.919708 875.844116,312.458130 870.130859,325.483643 
	C861.707214,344.688477 840.347107,348.169189 824.489929,337.599304 
	C820.273254,334.788544 818.144104,336.254028 815.697510,338.999359 
	C806.611450,349.195007 797.549805,359.413971 788.607361,369.735504 
	C782.829468,376.404480 777.172913,383.185333 771.656250,390.071655 
	C767.870728,394.797028 763.466675,397.810944 757.131042,397.145813 
	C755.982117,397.025208 754.787781,397.336945 753.638733,397.216766 
	C745.955383,396.413239 741.640747,399.748840 737.533813,406.555084 
	C731.162537,417.114014 721.551514,423.813568 708.109192,424.097382 
	C696.146057,424.349945 686.134644,420.889832 678.277710,411.958008 
	C669.629150,402.126221 666.920959,390.300629 670.292419,377.970184 
	C673.299500,366.972046 679.661621,357.868408 691.057373,353.285828 
	C700.963623,349.302185 720.606079,349.275055 728.459351,358.869171 
	C734.626587,366.403503 742.425049,367.476807 751.244202,366.736481 
	C754.136597,366.493652 755.792664,364.873871 757.379639,362.962738 
	C775.692688,340.909241 795.856445,320.501831 814.473511,298.720825 
	C817.846130,294.774933 821.523132,291.184418 825.979004,287.874146 
z"/>
<path fill="#000000" opacity="1.000000" stroke="none" 
	d="
M464.756836,255.054199 
	C464.882782,231.888107 481.325867,208.920944 502.294922,205.255386 
	C523.236633,201.594620 543.785645,209.856171 554.354980,229.977631 
	C563.277588,246.964081 562.975342,264.545624 554.632446,280.818207 
	C547.011353,295.682861 534.007690,304.879456 516.161255,306.543457 
	C487.753723,309.192169 463.199707,281.238861 464.756836,255.054199 
z"/>
<path fill="#000000" opacity="1.000000" stroke="none" 
	d="
M371.763763,181.200684 
	C355.336243,176.890381 345.425812,166.030518 340.457489,150.838303 
	C336.386780,138.390701 339.353577,126.252548 346.458649,115.676796 
	C357.822205,98.762360 374.594269,94.016212 393.726807,98.036720 
	C402.929901,99.970657 410.217438,105.817017 416.216492,113.544685 
	C424.393127,124.077347 425.277832,136.022247 423.734650,148.147629 
	C422.396301,158.663635 416.488312,167.442993 408.055023,173.921112 
	C404.176819,176.900192 403.227570,179.096146 405.678070,183.600052 
	C412.611115,196.342682 420.704803,208.338394 428.521454,220.515259 
	C430.848328,224.140076 432.327057,227.913223 431.503723,232.242416 
	C430.685547,236.544510 428.109100,239.925781 423.836121,240.452576 
	C419.349579,241.005692 414.555023,240.924088 410.996948,236.936020 
	C404.072784,229.175156 399.296936,219.964935 393.615356,211.370834 
	C388.017700,202.903610 382.700958,194.250732 377.257050,185.681808 
	C375.998077,183.700089 374.751007,181.696030 371.763763,181.200684 
z"/>
<path fill="#000000" opacity="1.000000" stroke="none" 
	d="
M608.226624,163.690338 
	C600.044189,151.702454 598.964539,139.233231 603.339783,125.903336 
	C607.030945,114.657219 614.358215,106.550293 624.524292,101.210457 
	C635.517212,95.436295 647.233826,95.198166 658.739868,99.730331 
	C664.251526,101.901337 669.237305,105.031952 673.845886,109.158669 
	C688.651550,122.416397 690.133728,148.548981 677.952576,164.731812 
	C671.499756,173.304535 664.030029,179.306702 653.509521,181.282608 
	C650.531250,181.841980 649.054321,183.821823 647.608154,186.160461 
	C637.803711,202.015915 628.003906,217.875153 618.048523,233.635895 
	C615.072632,238.347061 611.000610,241.320267 604.848450,240.436905 
	C594.878174,239.005356 590.908325,231.218109 596.215759,222.360703 
	C603.743896,209.797287 611.636414,197.452484 619.343018,184.995560 
	C620.895630,182.485992 622.796997,180.122131 623.437317,176.619110 
	C616.701355,174.404587 612.554077,169.217148 608.226624,163.690338 
z"/>
<path fill="#000000" opacity="1.000000" stroke="none" 
	d="
M918.027405,462.673401 
	C913.876892,468.092133 910.238464,473.130066 903.994141,476.237305 
	C887.021790,484.682800 863.310791,477.635498 856.954651,459.317627 
	C854.973206,453.607208 851.583496,451.726776 845.820740,452.043579 
	C841.199829,452.297607 836.517151,451.722961 831.880981,451.304291 
	C828.622681,451.010040 826.819763,452.245667 826.323914,455.472778 
	C825.648376,459.868835 823.107544,463.312469 820.897400,467.050507 
	C816.912231,473.790924 810.291443,476.581543 803.668579,477.899414 
	C789.028809,480.812561 773.218323,473.262024 768.803040,458.130005 
	C762.331909,435.952454 776.710083,415.398804 799.383240,417.059204 
	C809.946655,417.832825 818.373230,423.663757 823.468262,433.349609 
	C825.382141,436.987976 827.424805,440.628967 827.725037,445.378906 
	C835.724609,443.762146 843.347961,444.033081 850.958740,443.966705 
	C853.691040,443.942871 854.546326,441.911774 855.370117,439.876465 
	C856.925476,436.033478 857.685852,431.797119 860.179626,428.418640 
	C871.448120,413.152496 890.718811,408.891693 907.314453,420.046295 
	C918.255615,427.400330 923.420532,440.807404 920.567200,453.744385 
	C919.925720,456.652893 919.687927,459.669250 918.027405,462.673401 
z"/>
<path fill="#000000" opacity="1.000000" stroke="none" 
	d="
M257.322479,451.691101 
	C254.043976,472.620728 235.321808,484.733643 215.103302,475.409424 
	C206.169220,471.289215 200.852219,464.859497 198.775223,455.531647 
	C197.990707,452.008270 196.256454,451.068237 192.744614,451.576538 
	C186.656067,452.457855 180.501526,452.909821 174.364380,453.417572 
	C171.195251,453.679749 169.240784,454.986145 168.248581,458.197174 
	C164.879562,469.100311 157.065796,475.465149 146.548782,479.058624 
	C136.062378,482.641632 121.878395,478.200348 113.810219,470.666748 
	C103.907745,461.420380 103.113640,449.974792 105.087288,438.455139 
	C107.299355,425.543915 120.612457,414.373260 133.562119,413.824554 
	C151.481873,413.065308 162.131729,422.340027 169.040863,437.590057 
	C169.521088,438.650024 170.025009,439.726379 170.297363,440.848633 
	C171.418427,445.467773 173.671463,447.320282 178.858475,446.164368 
	C183.161835,445.205353 187.822388,445.537994 192.300552,445.768219 
	C196.239685,445.970673 197.985565,444.438751 198.733658,440.631470 
	C200.694321,430.652893 207.029190,424.093811 215.743256,419.339081 
	C227.854279,412.730957 246.773041,419.265747 254.036621,432.402618 
	C257.443481,438.564270 257.293335,444.778748 257.322479,451.691101 
z"/>
<path fill="#000000" opacity="1.000000" stroke="none" 
	d="
M321.887146,203.171631 
	C305.268555,203.542984 289.132812,204.040604 272.994141,204.171127 
	C268.949554,204.203857 266.085602,206.209305 263.001617,208.093887 
	C252.008591,214.811508 235.537888,211.872681 226.649857,202.548965 
	C213.530655,188.786667 216.470825,175.275131 223.629654,162.811111 
	C231.950958,148.323166 253.725800,145.397766 266.654694,156.071426 
	C272.457336,160.861908 277.130524,166.221283 278.473602,173.918808 
	C279.029755,177.106186 281.680023,176.779907 283.993073,176.840744 
	C298.795135,177.230042 313.596100,177.708801 328.400818,177.924698 
	C332.861450,177.989761 336.479553,179.178162 339.406250,182.637619 
	C341.010162,184.533463 342.739471,186.512085 344.821899,187.781174 
	C353.296387,192.945740 355.417297,200.466263 354.427246,209.872498 
	C353.751404,216.293839 354.324554,222.843781 354.285950,229.335907 
	C354.249298,235.489151 350.560577,239.241547 344.512177,239.354523 
	C343.180878,239.379395 341.848724,239.362076 340.516968,239.360046 
	C333.145721,239.348846 329.882324,236.095413 329.769073,228.450729 
	C329.680328,222.459030 329.746948,216.465103 329.737823,210.472168 
	C329.726532,203.057755 329.723541,203.057755 321.887146,203.171631 
z"/>
<path fill="#000000" opacity="1.000000" stroke="none" 
	d="
M695.287842,224.959717 
	C695.923645,242.125488 692.478882,239.325943 679.183105,239.232452 
	C674.985352,239.202927 671.946228,235.487930 671.914856,231.280212 
	C671.836609,220.793808 671.856750,210.306656 671.855957,199.819794 
	C671.855896,198.992859 671.864868,198.125885 672.097107,197.345200 
	C674.382263,189.663345 689.456665,178.222168 697.697693,177.981583 
	C711.666382,177.573807 725.636475,177.063278 739.608032,176.989288 
	C744.265137,176.964645 746.794006,175.728195 748.194824,170.966522 
	C751.711060,159.014053 759.888855,151.658249 772.340332,150.402145 
	C790.103394,148.610229 807.419922,162.064651 807.465393,179.638901 
	C807.487061,188.024033 804.648010,195.055817 800.440552,201.520599 
	C797.482422,206.065735 792.045288,209.225769 786.896912,210.322830 
	C779.403381,211.919632 771.227356,213.111496 764.049622,208.911041 
	C757.925049,205.326920 751.663513,204.040405 744.632080,204.066055 
	C730.162170,204.118866 715.684937,203.644913 701.221497,203.100464 
	C696.674561,202.929291 694.893250,204.305817 695.210693,208.991806 
	C695.558716,214.128372 695.286621,219.306961 695.287842,224.959717 
z"/>
<path fill="#000000" opacity="1.000000" stroke="none" 
	d="
M760.000000,584.795532 
	C790.299316,584.810059 820.098572,584.814697 849.897888,584.846619 
	C858.044983,584.855347 861.956909,589.934143 861.186584,598.063232 
	C860.433533,606.010254 855.293823,611.196045 850.831238,616.885498 
	C848.804932,619.468933 845.699951,618.886719 842.917358,618.889099 
	C797.635742,618.928162 752.354126,618.935852 707.072510,618.953552 
	C700.080505,618.956238 693.088379,619.000183 686.096558,618.966797 
	C684.144836,618.957458 682.080078,619.311279 680.049194,617.618958 
	C681.811157,613.873047 684.633423,610.765991 687.656189,608.177063 
	C694.516846,602.301147 700.740234,595.857788 706.494812,588.944580 
	C709.181763,585.716553 712.371277,584.657471 716.550049,584.720398 
	C730.863831,584.935791 745.182922,584.798584 760.000000,584.795532 
z"/>
<path fill="#000000" opacity="1.000000" stroke="none" 
	d="
M202.000015,618.963989 
	C195.838318,618.957031 190.176498,618.969421 184.514908,618.938599 
	C171.724670,618.868896 160.239624,602.383850 164.944016,590.442932 
	C166.618515,586.192627 170.607376,584.779236 175.163254,584.794006 
	C193.646881,584.853760 212.130859,584.803711 230.614700,584.799927 
	C256.758514,584.794678 282.902588,584.847046 309.045868,584.731262 
	C312.659454,584.715271 315.237396,585.746399 317.735168,588.466187 
	C325.724121,597.165161 333.600830,605.996887 342.662323,613.646667 
	C343.879639,614.674377 345.489777,615.526550 345.472198,618.963684 
	C297.782288,618.963684 250.141144,618.963684 202.000015,618.963989 
z"/>
<path fill="#000000" opacity="1.000000" stroke="none" 
	d="
M342.357697,247.947357 
	C364.156494,242.614624 383.999603,252.461014 391.036346,273.197937 
	C394.954071,284.743256 393.430389,296.992798 385.790558,307.388184 
	C379.309326,316.207062 371.343109,322.456909 359.659515,323.655060 
	C344.537048,325.205872 333.593384,319.032684 324.041809,308.048248 
	C308.541016,290.222107 316.837006,257.102905 342.357697,247.947357 
z"/>
<path fill="#000000" opacity="1.000000" stroke="none" 
	d="
M662.838013,247.402435 
	C683.768738,244.163544 697.203125,253.019318 706.765503,269.452515 
	C713.966248,281.827148 709.114075,301.511902 698.886963,312.023407 
	C685.881104,325.391022 666.723816,326.510193 652.446533,319.083893 
	C642.443970,313.881073 636.144287,304.520355 633.782349,293.190430 
	C631.138550,280.508942 634.139404,269.160675 642.695496,259.354248 
	C647.992798,253.282928 654.576111,249.351334 662.838013,247.402435 
z"/>
<path fill="#000000" opacity="1.000000" stroke="none" 
	d="
M290.750153,277.113953 
	C294.620789,282.122833 294.109955,287.477905 293.099945,292.712555 
	C292.195160,297.401917 288.087280,299.115234 284.109009,299.226868 
	C271.953461,299.567871 259.772369,299.609100 247.619370,299.211853 
	C239.827652,298.957153 236.304337,294.636902 235.541870,286.917542 
	C234.967285,281.100220 234.535904,275.287720 234.710434,269.462708 
	C234.827042,265.570465 233.335556,264.233887 229.454056,264.189697 
	C211.795441,263.988617 194.139374,263.557190 176.482849,263.185944 
	C170.386200,263.057800 170.000275,262.454956 172.176239,256.808929 
	C178.022461,241.639572 178.022461,241.644730 194.033798,241.645889 
	C214.699524,241.647385 235.365250,241.635330 256.030975,241.638336 
	C262.507294,241.639267 265.520721,244.321136 265.775696,250.831238 
	C265.997040,256.483093 265.976440,262.159821 265.727234,267.810791 
	C265.411133,274.978638 265.267883,274.977478 272.621796,274.985321 
	C276.788269,274.989746 280.955017,274.958252 285.121124,274.997284 
	C287.094147,275.015747 289.198730,274.759857 290.750153,277.113953 
z"/>
<path fill="#000000" opacity="1.000000" stroke="none" 
	d="
M759.736694,266.781860 
	C760.056946,260.497498 760.407532,254.682190 760.675537,248.863068 
	C760.966187,242.553741 761.821838,241.636429 768.070618,241.631577 
	C791.561768,241.613297 815.060120,241.946701 838.539368,241.418747 
	C844.996399,241.273575 848.381592,243.334763 850.434448,248.989716 
	C851.282532,251.325790 852.593323,253.490356 853.626587,255.763458 
	C856.166992,261.351898 855.121155,263.094452 849.052307,263.108093 
	C831.725647,263.147095 814.396240,263.277252 797.073547,263.009491 
	C792.071533,262.932190 790.296997,264.270050 790.759705,269.469208 
	C791.274231,275.251740 791.044189,281.128723 790.764526,286.946594 
	C790.413086,294.260132 785.661438,299.102173 778.346802,299.261322 
	C766.523682,299.518585 754.688843,299.494629 742.864136,299.290955 
	C738.533813,299.216370 734.486511,297.203094 732.657471,293.222931 
	C730.341003,288.181946 732.787842,278.610718 736.267395,276.032471 
	C737.697083,274.973114 739.363098,274.876495 741.028503,274.824097 
	C745.023987,274.698456 749.020569,274.609955 753.017090,274.519592 
	C757.769958,274.412201 760.677734,272.613831 759.736694,266.781860 
z"/>
<path fill="#000000" opacity="1.000000" stroke="none" 
	d="
M569.770874,785.364929 
	C569.917053,780.168701 566.506042,776.212463 566.673950,771.040710 
	C608.320312,771.040710 649.838928,771.040710 691.455872,771.040710 
	C692.302124,774.549377 690.163391,775.991272 687.812195,777.414917 
	C664.694702,791.413208 639.867920,801.173401 613.572327,807.218323 
	C603.534607,809.525818 593.406433,811.437439 583.336914,813.610352 
	C579.367004,814.466980 575.380188,814.036682 571.397095,814.101746 
	C568.195312,814.153992 567.165039,812.443054 568.058350,809.606384 
	C570.516663,801.800537 569.657166,793.780823 569.770874,785.364929 
z"/>
<path fill="#000000" opacity="1.000000" stroke="none" 
	d="
M457.444702,806.647705 
	C458.210297,809.440918 458.848572,811.829163 458.475403,814.749023 
	C453.261292,815.615723 448.289551,813.865356 443.324371,813.135742 
	C409.341644,808.142456 376.865295,798.306091 346.453857,782.124023 
	C343.230865,780.409058 340.223541,778.277954 337.173981,776.252747 
	C335.683807,775.263184 333.672180,774.249268 334.411560,772.050415 
	C335.094574,770.019165 337.236511,770.684875 338.796112,770.680725 
	C357.275421,770.631897 375.754883,770.644226 394.234314,770.640259 
	C413.879120,770.636047 433.523926,770.621277 453.168701,770.644714 
	C454.961731,770.646851 456.846313,770.294128 458.911163,771.701660 
	C457.107269,783.007507 453.284485,794.495605 457.444702,806.647705 
z"/>
<path fill="#000000" opacity="1.000000" stroke="none" 
	d="
M353.265381,962.683350 
	C342.739899,948.784851 340.891296,934.195435 348.816589,918.943481 
	C356.538940,904.082031 369.765656,897.625854 385.850616,898.121826 
	C402.847321,898.645813 415.770905,906.610596 422.243622,923.041687 
	C432.109406,948.086060 413.913483,975.344360 386.991669,976.434021 
	C373.656494,976.973694 362.507721,972.807800 353.265381,962.683350 
M406.664917,936.623535 
	C405.566010,922.813477 395.912811,913.749207 382.933105,914.339539 
	C371.316895,914.867859 362.228729,925.215698 362.400818,937.717712 
	C362.572357,950.176392 371.939331,959.828430 383.963409,959.936340 
	C397.315277,960.056213 406.071442,951.396301 406.664917,936.623535 
z"/>
<path fill="#000000" opacity="1.000000" stroke="none" 
	d="
M603.425476,968.080811 
	C603.384094,945.193909 603.384094,922.732361 603.384094,899.576416 
	C609.966919,899.576416 616.070923,899.425781 622.164612,899.612793 
	C630.631775,899.872620 639.183044,898.539246 647.557495,900.514282 
	C659.140442,903.246033 665.293640,909.648315 666.783691,921.267212 
	C668.149658,931.918396 664.495117,940.588440 654.924500,946.254272 
	C653.942200,946.835876 653.002686,947.489624 651.439209,948.500427 
	C657.230530,957.115540 662.909119,965.563049 669.376221,975.183411 
	C662.086548,975.183411 656.190552,975.254944 650.298035,975.142517 
	C648.377930,975.105896 647.682861,973.260254 646.768433,971.902832 
	C642.952026,966.237793 639.187683,960.537537 635.353394,954.884705 
	C633.209656,951.724182 625.140625,949.863647 621.920288,951.680481 
	C620.296143,952.596741 620.431702,954.158691 620.425781,955.631775 
	C620.405029,960.794006 620.383606,965.957458 620.473511,971.118469 
	C620.524414,974.038208 619.330200,975.448853 616.327209,975.306580 
	C614.332642,975.211975 612.328979,975.320557 610.329529,975.313599 
	C603.575439,975.289917 603.575439,975.285706 603.425476,968.080811 
M629.577881,915.293945 
	C627.747742,915.299438 625.916931,915.340027 624.087708,915.301758 
	C621.605896,915.249817 620.450012,916.274109 620.567261,918.898682 
	C620.767578,923.381470 620.854187,927.874573 620.802063,932.361206 
	C620.774841,934.700928 621.643494,935.720947 623.992126,935.685059 
	C629.148254,935.606323 634.328308,935.910767 639.456665,935.515259 
	C645.263794,935.067322 648.871521,930.765015 648.803040,925.181030 
	C648.733948,919.545471 645.552368,916.075989 639.511536,915.453552 
	C636.545044,915.147827 633.528015,915.332825 629.577881,915.293945 
z"/>
<path fill="#000000" opacity="1.000000" stroke="none" 
	d="
M456.054596,926.181274 
	C452.858643,933.034424 452.627625,939.641174 455.092590,946.400940 
	C459.670135,958.953979 476.811279,964.814026 488.152618,957.736511 
	C491.884064,955.408020 490.662933,951.842041 490.491486,948.719299 
	C490.311127,945.434448 487.339020,946.638733 485.381805,946.354309 
	C484.892303,946.283264 484.384186,946.340515 483.884613,946.338684 
	C473.671814,946.301331 471.980499,944.140442 473.883484,933.955566 
	C474.316895,931.635925 475.623322,930.908447 477.675232,930.905579 
	C486.500549,930.893188 495.325897,930.912292 504.151154,930.892761 
	C506.425446,930.887756 507.461365,931.893921 507.445312,934.223022 
	C507.381195,943.547668 507.385925,952.872742 507.381714,962.197693 
	C507.380981,963.822693 506.711334,965.073364 505.467987,966.070740 
	C488.051239,980.041565 460.298767,980.878479 445.381073,964.244507 
	C435.000427,952.669495 432.303314,938.930725 437.476562,924.238464 
	C442.604553,909.674683 453.120392,900.973206 468.515656,898.659912 
	C480.477814,896.862549 491.636322,898.993286 501.766907,905.958801 
	C504.545868,907.869568 504.782745,909.609985 502.586212,911.950317 
	C502.359406,912.191956 502.190216,912.486816 501.971130,912.736572 
	C499.669312,915.360657 497.820862,918.821960 494.941895,920.389282 
	C491.322388,922.359924 488.983521,917.869324 485.932770,916.540283 
	C474.033813,911.356506 463.159027,914.617615 456.054596,926.181274 
z"/>
<path fill="#000000" opacity="1.000000" stroke="none" 
	d="
M236.194000,510.489227 
	C243.547043,513.500488 248.530380,518.190369 250.817474,525.593689 
	C253.097122,532.972839 250.408340,545.004883 243.317444,550.382874 
	C231.111084,559.640686 217.698212,558.597900 207.939941,546.649475 
	C205.880157,544.127441 203.625412,543.940247 200.958664,543.938293 
	C184.819748,543.926208 168.679703,543.812500 152.542618,543.980225 
	C148.026260,544.027222 144.247650,542.789062 143.071411,538.435669 
	C141.676437,533.272644 139.972427,527.632019 145.245651,523.187622 
	C146.808044,521.870789 148.597336,521.899048 150.421295,521.858948 
	C167.048630,521.493896 183.674942,521.007141 200.304260,520.860962 
	C204.368439,520.825195 207.105743,519.502563 209.620178,516.376343 
	C215.545059,509.009583 227.189651,506.473724 236.194000,510.489227 
z"/>
<path fill="#000000" opacity="1.000000" stroke="none" 
	d="
M820.579590,543.960022 
	C818.242004,544.019287 817.185120,545.179138 816.301697,546.717346 
	C808.442871,560.402344 786.697083,558.503418 778.781311,547.343994 
	C769.533508,534.306641 774.653076,512.663208 791.188599,509.324799 
	C800.851685,507.373901 809.778137,509.493195 816.467896,517.319458 
	C818.504211,519.701599 820.531067,520.776489 823.651245,520.821472 
	C840.133789,521.059143 856.613281,521.496887 873.094238,521.847168 
	C880.047424,521.994934 883.147095,524.786377 883.340576,531.146423 
	C883.631348,540.705444 881.649841,543.627869 873.479919,543.758545 
	C855.993958,544.038147 838.501221,543.901489 820.579590,543.960022 
z"/>
<path fill="#000000" opacity="1.000000" stroke="none" 
	d="
M539.126465,925.000000 
	C539.164246,932.161560 539.027344,938.829773 539.280457,945.483154 
	C539.630615,954.689941 545.127747,959.846619 554.248230,959.907410 
	C563.669800,959.970215 569.534973,954.779968 569.743835,945.473022 
	C570.039001,932.321350 569.876709,919.159790 569.951599,906.002686 
	C569.988403,899.541626 570.085693,899.486206 576.268188,899.561401 
	C587.348572,899.696167 587.355652,899.696106 587.359619,910.684753 
	C587.363770,922.177307 587.393555,933.669983 587.338135,945.162292 
	C587.248901,963.677246 574.809998,976.065613 556.206543,976.341125 
	C550.847778,976.420532 545.554138,976.232056 540.477966,974.292786 
	C526.538391,968.967651 521.522949,957.728516 521.105408,943.957642 
	C520.701843,930.645325 521.033264,917.311584 520.955994,903.987854 
	C520.936584,900.635742 522.127991,898.924011 525.696350,899.481262 
	C526.512451,899.608704 527.358704,899.546021 528.191162,899.564575 
	C539.828491,899.824402 539.127197,897.399414 539.141174,910.509094 
	C539.146179,915.172729 539.131531,919.836365 539.126465,925.000000 
z"/>
<path fill="#000000" opacity="1.000000" stroke="none" 
	d="
M697.266663,917.001648 
	C697.278137,926.166138 697.217041,934.831665 697.319275,943.495300 
	C697.437683,953.537537 702.349854,959.296936 711.071350,959.851257 
	C721.428894,960.509583 726.607483,956.550903 727.935669,945.931824 
	C729.552124,933.007996 728.329651,919.976990 728.578613,906.995605 
	C728.720642,899.587646 728.619141,899.506104 735.928528,899.594299 
	C746.396240,899.720581 746.165710,897.757446 746.032715,909.887207 
	C745.890381,922.872559 746.773193,935.876587 745.392273,948.843811 
	C743.622925,965.457764 732.135010,976.012451 715.352173,976.284302 
	C711.863403,976.340881 708.291931,976.505676 704.891113,975.889282 
	C689.293701,973.061890 680.180847,962.476807 679.777100,946.260315 
	C679.424744,932.105225 679.757019,917.934265 679.605042,903.772217 
	C679.566467,900.171631 680.950012,899.291199 684.365662,899.391479 
	C697.269104,899.770325 697.272156,899.665955 697.266663,912.502686 
	C697.266052,913.835754 697.266418,915.168823 697.266663,917.001648 
z"/>
<path fill="#000000" opacity="1.000000" stroke="none" 
	d="
M505.543945,821.955688 
	C490.020660,816.584412 482.380310,802.362305 486.696075,787.408081 
	C489.783203,776.710938 502.443115,765.997620 515.792175,768.545593 
	C526.294067,770.550171 534.690979,775.244690 538.758362,785.368164 
	C543.786743,797.883362 536.627319,817.183533 523.534729,821.076050 
	C517.524475,822.862854 511.885162,823.113098 505.543945,821.955688 
z"/>
<path fill="#000000" opacity="1.000000" stroke="none" 
	d="
M142.210953,390.122925 
	C129.882812,389.647736 129.528610,386.444946 131.232559,375.709259 
	C132.557404,367.362030 134.054993,366.686829 142.667740,366.685547 
	C157.484497,366.683380 172.312500,367.025330 187.112869,366.533295 
	C193.714874,366.313782 198.404648,368.848663 202.205215,373.524719 
	C207.450531,379.978302 212.446716,386.642487 217.356918,393.357391 
	C220.588730,397.777008 219.991364,399.850769 215.293198,402.484070 
	C212.535217,404.029846 209.722229,405.482391 207.010818,407.105225 
	C202.717575,409.674805 199.041534,408.653076 195.835068,405.248260 
	C193.326309,402.584381 190.575699,400.016479 188.668762,396.948334 
	C185.763443,392.273804 181.895447,391.156738 176.617462,390.946503 
	C165.305374,390.495941 153.993469,390.386230 142.210953,390.122925 
z"/>
<path fill="#000000" opacity="1.000000" stroke="none" 
	d="
M814.059326,384.085083 
	C826.480042,367.753296 826.481079,367.851349 846.261658,367.647064 
	C858.237427,367.523376 870.208069,366.963257 882.183716,366.743530 
	C890.318970,366.594299 891.104248,367.287201 893.303467,374.965179 
	C896.999023,387.867065 895.606323,389.751892 882.137451,390.127319 
	C869.831055,390.470276 857.526550,390.924530 845.217957,391.114471 
	C841.917786,391.165405 839.598206,392.149323 837.628540,394.853027 
	C835.284424,398.070892 832.524902,400.989258 829.906372,404.003540 
	C825.523193,409.048889 821.925171,409.701172 815.750305,406.512909 
	C814.277832,405.752625 812.934143,404.743011 811.531067,403.848328 
	C805.302429,399.876434 804.687805,396.329498 809.225769,390.262756 
	C810.720581,388.264404 812.299500,386.329010 814.059326,384.085083 
z"/>
<path fill="#000000" opacity="1.000000" stroke="none" 
	d="
M281.561523,940.813599 
	C281.494751,928.195435 281.537445,916.052124 281.293121,903.914673 
	C281.222717,900.418335 282.249268,898.872925 285.823730,899.402588 
	C286.806335,899.548035 287.814850,899.537476 288.812378,899.560242 
	C299.889832,899.813660 299.210083,897.419983 299.214752,910.490417 
	C299.219666,924.301941 299.198120,938.113464 299.202667,951.924988 
	C299.204987,958.942139 299.219452,958.944153 306.466034,958.946655 
	C314.619843,958.949524 322.776672,959.081116 330.926147,958.893311 
	C335.040680,958.798462 336.472900,960.371033 336.378448,964.473450 
	C336.089783,977.016602 337.563263,975.218811 325.913422,975.305237 
	C312.934662,975.401550 299.950500,975.134460 286.977142,975.415649 
	C282.150818,975.520203 280.707764,973.535339 281.156647,969.214966 
	C282.122437,959.919312 281.076538,950.593750 281.561523,940.813599 
z"/>
</svg>